<svg xmlns="http://www.w3.org/2000/svg" xmlns:xlink="http://www.w3.org/1999/xlink" viewBox="0 0 1937 2321"><defs><style>.cls-1{fill:url(#Nepojmenovaný_přechod_117);}.cls-2{fill:url(#Nepojmenovaný_přechod_141);}.cls-3{fill:url(#Nepojmenovaný_přechod_87);}.cls-4{fill:url(#Nepojmenovaný_přechod_87-2);}.cls-5{fill:url(#Nepojmenovaný_přechod_87-3);}.cls-6{fill:url(#Nepojmenovaný_přechod_87-4);}.cls-7{fill:url(#Nové_políčko_přechodu_4);}.cls-8{fill:url(#Nové_políčko_přechodu_4-2);}.cls-9{fill:url(#Nepojmenovaný_přechod_87-5);}.cls-10{fill:url(#Nepojmenovaný_přechod_87-6);}.cls-11{fill:url(#Nepojmenovaný_přechod_87-7);}.cls-12{fill:url(#Nepojmenovaný_přechod_87-8);}.cls-13{fill:url(#Nepojmenovaný_přechod_87-9);}.cls-14{fill:url(#Nepojmenovaný_přechod_87-10);}.cls-15{fill:url(#Nepojmenovaný_přechod_87-11);}.cls-16{fill:url(#Nepojmenovaný_přechod_87-12);}.cls-17{fill:url(#Nepojmenovaný_přechod_87-13);}.cls-18{fill:url(#Nepojmenovaný_přechod_87-14);}.cls-19{fill:#fff;}.cls-20{fill:url(#Nové_políčko_přechodu_4-3);}.cls-21{fill:url(#Nové_políčko_přechodu_4-4);}</style><linearGradient id="Nepojmenovaný_přechod_117" x1="964.5" y1="2321" x2="964.5" y2="1241" gradientUnits="userSpaceOnUse"><stop offset="0"/><stop offset="1"/></linearGradient><linearGradient id="Nepojmenovaný_přechod_141" x1="977" y1="1080" x2="977" gradientUnits="userSpaceOnUse"><stop offset="0" stop-color="#fff"/><stop offset="0.24" stop-color="#fafafa"/><stop offset="0.53" stop-color="#ebebeb"/><stop offset="0.84" stop-color="#d3d3d3"/><stop offset="1" stop-color="#c4c4c4"/></linearGradient><linearGradient id="Nepojmenovaný_přechod_87" x1="526.8" y1="661.46" x2="526.8" y2="300.68" gradientUnits="userSpaceOnUse"><stop offset="0" stop-color="#242424"/><stop offset="0.08" stop-color="#1c1c1c"/><stop offset="0.33" stop-color="#090909"/><stop offset="0.51" stop-color="#020202"/></linearGradient><linearGradient id="Nepojmenovaný_přechod_87-2" x1="902.97" y1="661.46" x2="902.97" y2="420.94" xlink:href="#Nepojmenovaný_přechod_87"/><linearGradient id="Nepojmenovaný_přechod_87-3" x1="1307.2" y1="661.46" x2="1307.2" y2="300.68" xlink:href="#Nepojmenovaný_přechod_87"/><linearGradient id="Nepojmenovaný_přechod_87-4" x1="1556.27" y1="661.44" x2="1556.27" y2="429.46" xlink:href="#Nepojmenovaný_přechod_87"/><linearGradient id="Nové_políčko_přechodu_4" x1="1475.48" y1="447.29" x2="1402.46" y2="520.31" gradientTransform="translate(3027.7 866.4) rotate(180)" gradientUnits="userSpaceOnUse"><stop offset="0" stop-color="#ee2b00"/><stop offset="0.2" stop-color="#e32500"/><stop offset="0.69" stop-color="#cc1700"/><stop offset="1" stop-color="#c31200"/></linearGradient><linearGradient id="Nové_políčko_přechodu_4-2" x1="480.75" y1="618.27" x2="265.31" y2="833.72" gradientTransform="matrix(1, 0, -0.59, 1, 534.11, 0)" xlink:href="#Nové_políčko_přechodu_4"/><linearGradient id="Nepojmenovaný_přechod_87-5" x1="618.29" y1="727.02" x2="645.71" y2="727.02" gradientTransform="matrix(1, 0, -0.34, 1, 324.79, 0)" xlink:href="#Nepojmenovaný_přechod_87"/><linearGradient id="Nepojmenovaný_přechod_87-6" x1="659.09" y1="727.07" x2="751.16" y2="727.07" gradientTransform="matrix(1, 0, -0.34, 1, 324.79, 0)" xlink:href="#Nepojmenovaný_přechod_87"/><linearGradient id="Nepojmenovaný_přechod_87-7" x1="764.54" y1="727.02" x2="856.93" y2="727.02" gradientTransform="matrix(1, 0, -0.34, 1, 324.79, 0)" xlink:href="#Nepojmenovaný_přechod_87"/><linearGradient id="Nepojmenovaný_přechod_87-8" x1="870.41" y1="727.02" x2="962.38" y2="727.02" gradientTransform="matrix(1, 0, -0.34, 1, 324.79, 0)" xlink:href="#Nepojmenovaný_přechod_87"/><linearGradient id="Nepojmenovaný_přechod_87-9" x1="974.51" y1="727.02" x2="1056.14" y2="727.02" gradientTransform="matrix(1, 0, -0.34, 1, 324.79, 0)" xlink:href="#Nepojmenovaný_přechod_87"/><linearGradient id="Nepojmenovaný_přechod_87-10" x1="1061.97" y1="727.02" x2="1143.9" y2="727.02" gradientTransform="matrix(1, 0, -0.34, 1, 324.79, 0)" xlink:href="#Nepojmenovaný_přechod_87"/><linearGradient id="Nepojmenovaný_přechod_87-11" x1="1150.97" y1="727.02" x2="1242.53" y2="727.02" gradientTransform="matrix(1, 0, -0.34, 1, 324.79, 0)" xlink:href="#Nepojmenovaný_přechod_87"/><linearGradient id="Nepojmenovaný_přechod_87-12" x1="1253.21" y1="727.02" x2="1280.63" y2="727.02" gradientTransform="matrix(1, 0, -0.34, 1, 324.79, 0)" xlink:href="#Nepojmenovaný_přechod_87"/><linearGradient id="Nepojmenovaný_přechod_87-13" x1="1294.01" y1="727.02" x2="1377.08" y2="727.02" gradientTransform="matrix(1, 0, -0.34, 1, 324.79, 0)" xlink:href="#Nepojmenovaný_přechod_87"/><linearGradient id="Nepojmenovaný_přechod_87-14" x1="1387.98" y1="727.02" x2="1469.6" y2="727.02" gradientTransform="matrix(1, 0, -0.34, 1, 324.79, 0)" xlink:href="#Nepojmenovaný_přechod_87"/><linearGradient id="Nové_políčko_přechodu_4-3" x1="1526.07" y1="1612.58" x2="1648.03" y2="1612.58" gradientTransform="matrix(1, 0, 0, 1, 0, 0)" xlink:href="#Nové_políčko_přechodu_4"/><linearGradient id="Nové_políčko_přechodu_4-4" x1="1207.5" y1="1875.63" x2="992.05" y2="2091.08" gradientTransform="matrix(1, 0, -0.59, 1, 534.11, 0)" xlink:href="#Nové_políčko_přechodu_4"/></defs><g id="Vrstva_3" data-name="Vrstva 3"><rect class="cls-1" y="1241" width="1929" height="1080"/></g><g id="REDI"><rect class="cls-2" x="17" width="1920" height="1080"/><path class="cls-3" d="M742,407.27l-44.84-89.69a30.56,30.56,0,0,0-27.34-16.9H444.56a28.37,28.37,0,0,0-26.9,19.4L310.12,642.69a14.26,14.26,0,0,0,13.53,18.77h81A27,27,0,0,0,430.28,643L529,360.77a16.33,16.33,0,0,1,15.49-11.16h41.57a14.25,14.25,0,0,1,12.75,7.88l21.95,47.92a24.09,24.09,0,0,1-4.51,27.81l-95.21,95.21a25.08,25.08,0,0,0-4.69,28.93l44.78,89.57a26.31,26.31,0,0,0,23.52,14.53h80.93a14.26,14.26,0,0,0,12.76-20.64l-42.14-84.29a23.77,23.77,0,0,1,4.45-27.45L738,431.75A21.22,21.22,0,0,0,742,407.27Z"/><path class="cls-4" d="M821.53,610.94l-32-65.75a6.19,6.19,0,0,1,1.16-7.15l64.43-65.18a10.22,10.22,0,0,1,7.22-3H965a6.2,6.2,0,0,1,4.38,10.58l-35.16,36a18.32,18.32,0,0,1-13,5.37H851.8A14.41,14.41,0,0,0,841.61,526l-14.76,14.76a11.43,11.43,0,0,0-2.46,12.45h0a12,12,0,0,0,11.08,7.38H998.65a25.88,25.88,0,0,0,18-7.22l10.93-11.23.48-.95,13.92-13.93.53-.5h0l88.38-88.38a10.22,10.22,0,0,0-7.22-17.45H802.8a37,37,0,0,0-26.13,10.83l-98,98a22.47,22.47,0,0,0-4.21,25.94l46.4,92.8a23.44,23.44,0,0,0,21,13h336.25a6.2,6.2,0,0,0,5.54-9l-15.35-29a16.41,16.41,0,0,0-14.68-9.07H827.08A6.21,6.21,0,0,1,821.53,610.94Z"/><path class="cls-5" d="M1423.79,311.68,1318.23,610.13a6.2,6.2,0,0,1-5.88,4.24H1233a16.63,16.63,0,0,1-14.86-9.19l-25.94-53.54a16.18,16.18,0,0,1,3-18.69l53.41-54.16a32,32,0,0,1,22.59-9.36h74.09a6.19,6.19,0,0,0,5.94-4.46l13.79-36.1a6.19,6.19,0,0,0-5.94-7.93H1204.65a42.73,42.73,0,0,0-30.23,12.53l-96.35,96.34a22.34,22.34,0,0,0-4.18,25.8l45.51,91a26.81,26.81,0,0,0,24,14.83h271.37a17.61,17.61,0,0,0,16.71-12.05l5.61-16.81,105.14-315.44a12.52,12.52,0,0,0-11.88-16.48h-91.29A16.09,16.09,0,0,0,1423.79,311.68Z"/><path class="cls-6" d="M1616.46,545.28,1651,441.55a9.19,9.19,0,0,0-8.71-12.09h-91.88a21.71,21.71,0,0,0-20.59,14.84l-68.33,205a9.18,9.18,0,0,0,14.21,10.25l127-95.25A39.33,39.33,0,0,0,1616.46,545.28Z"/><path class="cls-7" d="M1571.43,305.55l-32.2,96.33a6.2,6.2,0,0,0,6,7.7h109.55a6.2,6.2,0,0,0,5-9.92l-77.35-96.32A6.2,6.2,0,0,0,1571.43,305.55Z"/><path class="cls-8" d="M652.92,757.57H286.1c-9.1,0-14.18-7.11-11.29-15.79l10.53-31.57c2.89-8.68,12.7-15.79,21.81-15.79H674c9.1,0,14.18,7.11,11.29,15.79l-10.52,31.57C671.83,750.46,662,757.57,652.92,757.57Z"/><polygon class="cls-9" points="686.74 758.83 708.24 695.2 735.65 695.2 714.16 758.83 686.74 758.83"/><polygon class="cls-10" points="727.54 758.83 744.77 707.82 746.12 705.03 748.24 702.44 754.53 698.2 762.72 695.41 771.93 694.48 780.69 695.2 785.37 696.65 788.91 698.72 791.38 701.51 792.61 704.93 799.45 741.65 815.14 695.2 841.11 695.2 823.32 747.86 820.13 752.41 814.11 756.14 806.1 758.73 797.09 759.66 788.88 759.14 782.72 757.17 778.6 753.76 776.52 748.9 769.4 712.38 753.71 758.83 727.54 758.83"/><path class="cls-11" d="M942.82,706l-.26-2.9-1.37-2.37-2.34-2-7.71-2.59-11.69-.93h-65L833,758.83H899.1l10.49-.73,8.49-2.17,6.53-3.72,4.41-5.07,1.08-2.28,12-35.69Zm-38.36,33.63-.38.82-2.08,2.8-2.77,1.44-6.14.42h-28l12.24-36.21h27.93l6.38.72,1.65.93.58,1.35Z"/><polygon class="cls-12" points="944.24 742.9 960.35 695.2 987.66 695.2 971.66 742.59 973.72 744.45 980.23 745.07 998.75 745.07 1005.38 744.45 1008.73 742.79 1009.04 742.17 1024.91 695.2 1052.32 695.2 1036.21 742.9 1033.71 748.17 1030.41 751.79 1025.06 754.79 1018.6 757.07 1011 758.41 1002.38 758.83 967.2 758.83 958.48 758.31 951.59 756.97 946.6 754.59 943.51 751.17 943.08 747.86 944.24 742.9"/><polygon class="cls-13" points="1060.19 707.82 1062 704.62 1066.81 700.48 1073.07 697.58 1081.01 695.82 1090.43 695.2 1146.09 695.2 1141.47 708.86 1093.23 708.96 1088.46 709.89 1086.21 711.96 1084.78 716.2 1084.67 717.13 1086.18 719.1 1090.56 719.93 1092.32 719.93 1112.18 719.93 1120.25 720.55 1126.93 722.2 1130.64 724.07 1133.05 726.45 1133.97 729.24 1133.47 732.55 1129.14 745.38 1127.33 748.9 1124.31 752 1120.16 754.48 1114.91 756.55 1106.59 758.21 1097.28 758.83 1043.17 758.83 1047.82 745.07 1095.51 745.07 1100.76 743.62 1103.19 741.34 1104.76 736.69 1103.91 734.62 1099.88 733.69 1077.12 733.69 1065.36 732.34 1060.99 730.58 1057.59 728.1 1055.6 724.79 1055.69 721.17 1060.19 707.82"/><polygon class="cls-14" points="1147.3 708.86 1151.91 695.2 1233.85 695.2 1229.23 708.86 1201.92 708.86 1185.04 758.83 1157.63 758.83 1174.51 708.86 1147.3 708.86"/><polygon class="cls-15" points="1240.91 695.2 1304.85 695.2 1316.16 696.03 1323.53 698.41 1325.8 700.27 1327.13 702.44 1327.46 705.13 1326.86 708.13 1322.57 720.86 1321.07 723.76 1318.75 726.34 1315.49 728.62 1311.42 730.58 1304.75 732.55 1297.37 733.59 1292.57 733.69 1288.37 733.59 1310.98 758.83 1278.6 758.83 1257.84 735.14 1256.75 732.86 1257.34 730.17 1260.09 726.65 1264.27 724.07 1269.72 722.62 1276.52 722.1 1287.69 722.1 1293.39 721.17 1295.08 720.13 1296.12 718.58 1298.12 712.69 1298.16 711.34 1297.2 710.2 1292.65 708.96 1290.93 708.86 1263.72 708.86 1246.84 758.83 1219.42 758.83 1240.91 695.2"/><polygon class="cls-16" points="1321.66 758.83 1343.16 695.2 1370.58 695.2 1349.08 758.83 1321.66 758.83"/><polygon class="cls-17" points="1366.93 745.59 1379.3 708.96 1380.87 706.17 1385.37 701.41 1391.8 698 1400.26 695.93 1410.54 695.2 1467.03 695.2 1462.41 708.86 1413.17 708.86 1411.2 709.17 1407.33 710.51 1405.39 712.89 1403.02 719.93 1458.67 719.93 1454.03 733.69 1398.37 733.69 1395.95 740.83 1395.81 742.48 1396.7 743.83 1401.56 745.07 1450.18 745.07 1445.53 758.83 1392.87 758.83 1379.91 758 1371.23 755.52 1368.55 753.66 1366.94 751.38 1366.4 748.69 1366.93 745.59"/><polygon class="cls-18" points="1473.66 707.82 1475.46 704.62 1480.28 700.48 1486.53 697.58 1494.47 695.82 1503.89 695.2 1559.55 695.2 1554.94 708.86 1506.69 708.96 1501.82 709.89 1499.67 711.96 1498.24 716.2 1498.13 717.13 1499.64 719.1 1504.02 719.93 1505.78 719.93 1525.64 719.93 1533.71 720.55 1540.39 722.2 1544.11 724.07 1546.51 726.45 1547.43 729.24 1546.93 732.55 1542.6 745.38 1540.79 748.9 1537.78 752 1533.63 754.48 1528.38 756.55 1520.06 758.21 1510.64 758.83 1456.63 758.83 1461.28 745.07 1508.98 745.07 1514.22 743.62 1516.55 741.34 1518.12 736.69 1517.37 734.62 1513.34 733.69 1490.58 733.69 1478.82 732.34 1474.45 730.58 1471.05 728.1 1469.06 724.79 1469.15 721.17 1473.66 707.82"/><path class="cls-19" d="M729,1664.63l-44.85-89.69a30.56,30.56,0,0,0-27.33-16.89H431.59a28.36,28.36,0,0,0-26.91,19.39L297.15,1900.05a14.26,14.26,0,0,0,13.53,18.77h81a27,27,0,0,0,25.61-18.46l98.76-282.23A16.33,16.33,0,0,1,531.54,1607h41.58a14.26,14.26,0,0,1,12.75,7.89l22,47.91a24.11,24.11,0,0,1-4.51,27.82l-95.21,95.2a25,25,0,0,0-4.69,28.93l44.78,89.57a26.31,26.31,0,0,0,23.52,14.53h80.93a14.27,14.27,0,0,0,12.76-20.64l-42.15-84.28a23.8,23.8,0,0,1,4.46-27.46L725,1689.11A21.22,21.22,0,0,0,729,1664.63Z"/><path class="cls-19" d="M808.56,1868.3l-32-65.74a6.19,6.19,0,0,1,1.16-7.16l64.42-65.17a10.23,10.23,0,0,1,7.23-3H952a6.2,6.2,0,0,1,4.39,10.58l-35.17,36a18.28,18.28,0,0,1-13,5.37H838.82a14.4,14.4,0,0,0-10.18,4.22l-14.76,14.76a11.4,11.4,0,0,0-2.46,12.44h0A12,12,0,0,0,822.5,1818H985.68a25.91,25.91,0,0,0,18-7.23l10.93-11.22.48-1,13.92-13.92.53-.51h0l88.38-88.38a10.22,10.22,0,0,0-7.23-17.45H789.83a37,37,0,0,0-26.13,10.83l-98,98a22.47,22.47,0,0,0-4.21,25.94l46.4,92.81a23.45,23.45,0,0,0,21,13h336.26a6.2,6.2,0,0,0,5.54-9l-15.35-29a16.42,16.42,0,0,0-14.68-9.07H814.1A6.2,6.2,0,0,1,808.56,1868.3Z"/><path class="cls-19" d="M1410.82,1569.05l-105.56,298.44a6.2,6.2,0,0,1-5.88,4.24H1220a16.62,16.62,0,0,1-14.86-9.18L1179.19,1809a16.18,16.18,0,0,1,3-18.69l53.4-54.16a32,32,0,0,1,22.6-9.36h74.08a6.18,6.18,0,0,0,6-4.46l13.79-36.09a6.2,6.2,0,0,0-6-7.94H1191.68a42.77,42.77,0,0,0-30.24,12.53l-96.34,96.34a22.34,22.34,0,0,0-4.18,25.8l45.5,91a26.84,26.84,0,0,0,24,14.83h271.37a17.62,17.62,0,0,0,16.71-12l5.6-16.82,105.15-315.44a12.52,12.52,0,0,0-11.88-16.47h-91.29A16.08,16.08,0,0,0,1410.82,1569.05Z"/><path class="cls-19" d="M1603.49,1802.64l34.58-103.73a9.19,9.19,0,0,0-8.71-12.09h-91.88a21.7,21.7,0,0,0-20.59,14.84l-68.34,205a9.18,9.18,0,0,0,14.22,10.25l127-95.25A39.35,39.35,0,0,0,1603.49,1802.64Z"/><path class="cls-20" d="M1558.46,1562.92l-32.2,96.32a6.2,6.2,0,0,0,6,7.7h109.55a6.2,6.2,0,0,0,5-9.92l-77.36-96.32A6.19,6.19,0,0,0,1558.46,1562.92Z"/><path class="cls-21" d="M640,2014.93H273.13c-9.1,0-14.18-7.1-11.29-15.79l10.52-31.57c2.9-8.68,12.71-15.78,21.81-15.78H661c9.1,0,14.18,7.1,11.29,15.78l-10.52,31.57C658.86,2007.83,649.05,2014.93,640,2014.93Z"/><polygon class="cls-19" points="673.77 2016.19 695.27 1952.56 722.68 1952.56 701.19 2016.19 673.77 2016.19"/><polygon class="cls-19" points="714.56 2016.19 731.79 1965.19 733.15 1962.39 735.27 1959.81 741.56 1955.57 749.75 1952.77 758.96 1951.84 767.72 1952.56 772.4 1954.01 775.94 1956.08 778.41 1958.88 779.64 1962.29 786.48 1999.02 802.17 1952.56 828.13 1952.56 810.35 2005.22 807.15 2009.78 801.14 2013.5 793.12 2016.09 784.12 2017.02 775.91 2016.5 769.75 2014.54 765.63 2011.12 763.54 2006.26 756.43 1969.74 740.74 2016.19 714.56 2016.19"/><path class="cls-19" d="M929.85,1963.32l-.26-2.89-1.37-2.38-2.34-2-7.71-2.58-11.69-.94h-65L820,2016.19h66.11l10.48-.72,8.5-2.18,6.53-3.72,4.4-5.07,1.08-2.28,12.06-35.69ZM891.49,1997l-.38.83-2.09,2.79-2.76,1.45-6.14.41h-28l12.23-36.21h27.94l6.37.73,1.66.93.58,1.34Z"/><polygon class="cls-19" points="931.27 2000.26 947.38 1952.56 974.69 1952.56 958.68 1999.95 960.75 2001.81 967.26 2002.43 985.78 2002.43 992.4 2001.81 995.76 2000.15 996.07 1999.53 1011.94 1952.56 1039.35 1952.56 1023.24 2000.26 1020.73 2005.54 1017.44 2009.16 1012.08 2012.16 1005.62 2014.43 998.03 2015.78 989.41 2016.19 954.23 2016.19 945.51 2015.67 938.62 2014.33 933.63 2011.95 930.54 2008.54 930.11 2005.22 931.27 2000.26"/><polygon class="cls-19" points="1047.22 1965.19 1049.03 1961.98 1053.84 1957.84 1060.1 1954.94 1068.04 1953.18 1077.45 1952.56 1133.12 1952.56 1128.5 1966.22 1080.26 1966.32 1075.49 1967.26 1073.24 1969.33 1071.81 1973.57 1071.7 1974.5 1073.21 1976.46 1077.59 1977.29 1079.34 1977.29 1099.21 1977.29 1107.28 1977.91 1113.96 1979.57 1117.67 1981.43 1120.08 1983.81 1120.99 1986.6 1120.5 1989.91 1116.16 2002.74 1114.36 2006.26 1111.34 2009.36 1107.19 2011.85 1101.94 2013.91 1093.62 2015.57 1084.31 2016.19 1030.2 2016.19 1034.85 2002.43 1082.54 2002.43 1087.79 2000.98 1090.21 1998.71 1091.79 1994.05 1090.93 1991.98 1086.9 1991.05 1064.14 1991.05 1052.39 1989.71 1048.02 1987.95 1044.61 1985.46 1042.63 1982.15 1042.71 1978.53 1047.22 1965.19"/><polygon class="cls-19" points="1134.33 1966.22 1138.94 1952.56 1220.88 1952.56 1216.26 1966.22 1188.95 1966.22 1172.07 2016.19 1144.65 2016.19 1161.53 1966.22 1134.33 1966.22"/><polygon class="cls-19" points="1227.94 1952.56 1291.88 1952.56 1303.19 1953.39 1310.56 1955.77 1312.82 1957.63 1314.16 1959.81 1314.49 1962.5 1313.89 1965.5 1309.59 1978.22 1308.1 1981.12 1305.78 1983.7 1302.52 1985.98 1298.44 1987.95 1291.78 1989.91 1284.39 1990.95 1279.6 1991.05 1275.39 1990.95 1298.01 2016.19 1265.63 2016.19 1244.87 1992.5 1243.77 1990.22 1244.37 1987.53 1247.11 1984.02 1251.3 1981.43 1256.75 1979.98 1263.55 1979.46 1274.72 1979.46 1280.42 1978.53 1282.11 1977.5 1283.15 1975.95 1285.14 1970.05 1285.18 1968.7 1284.22 1967.57 1279.68 1966.32 1277.95 1966.22 1250.74 1966.22 1233.86 2016.19 1206.45 2016.19 1227.94 1952.56"/><polygon class="cls-19" points="1308.69 2016.19 1330.19 1952.56 1357.6 1952.56 1336.11 2016.19 1308.69 2016.19"/><polygon class="cls-19" points="1353.96 2002.95 1366.33 1966.32 1367.9 1963.53 1372.4 1958.77 1378.83 1955.36 1387.29 1953.29 1397.57 1952.56 1454.06 1952.56 1449.44 1966.22 1400.2 1966.22 1398.23 1966.53 1394.36 1967.88 1392.42 1970.26 1390.04 1977.29 1445.7 1977.29 1441.06 1991.05 1385.39 1991.05 1382.98 1998.19 1382.84 1999.85 1383.73 2001.19 1388.59 2002.43 1437.21 2002.43 1432.56 2016.19 1379.9 2016.19 1366.94 2015.36 1358.26 2012.88 1355.58 2011.02 1353.97 2008.74 1353.43 2006.05 1353.96 2002.95"/><polygon class="cls-19" points="1460.68 1965.19 1462.49 1961.98 1467.31 1957.84 1473.56 1954.94 1481.5 1953.18 1490.92 1952.56 1546.58 1952.56 1541.96 1966.22 1493.72 1966.32 1488.85 1967.26 1486.7 1969.33 1485.27 1973.57 1485.16 1974.5 1486.67 1976.46 1491.05 1977.29 1492.81 1977.29 1512.67 1977.29 1520.74 1977.91 1527.42 1979.57 1531.14 1981.43 1533.54 1983.81 1534.46 1986.6 1533.96 1989.91 1529.63 2002.74 1527.82 2006.26 1524.8 2009.36 1520.65 2011.85 1515.4 2013.91 1507.08 2015.57 1497.67 2016.19 1443.66 2016.19 1448.31 2002.43 1496 2002.43 1501.25 2000.98 1503.57 1998.71 1505.15 1994.05 1504.4 1991.98 1500.37 1991.05 1477.61 1991.05 1465.85 1989.71 1461.48 1987.95 1458.08 1985.46 1456.09 1982.15 1456.18 1978.53 1460.68 1965.19"/></g></svg>