<?xml version="1.0" standalone="no"?>
<!DOCTYPE svg PUBLIC "-//W3C//DTD SVG 20010904//EN"
 "http://www.w3.org/TR/2001/REC-SVG-20010904/DTD/svg10.dtd">
<svg version="1.0" xmlns="http://www.w3.org/2000/svg"
 width="4000.000000pt" height="4000.000000pt" viewBox="0 0 4000.000000 4000.000000"
 preserveAspectRatio="xMidYMid meet">
<metadata>
Created by potrace 1.11, written by Peter Selinger 2001-2013
</metadata>
<g transform="translate(0.000000,4000.000000) scale(0.100000,-0.100000)"
fill="#000000" stroke="none">
<path d="M12704 29999 c-3 -5 -9 -22 -14 -37 -8 -26 -37 -107 -165 -467 -31
-88 -61 -176 -67 -195 -5 -19 -16 -48 -23 -65 -7 -16 -25 -64 -38 -105 -14
-41 -38 -109 -52 -150 -15 -41 -74 -210 -131 -375 -58 -165 -114 -322 -124
-350 -11 -27 -51 -142 -91 -255 -39 -113 -97 -279 -129 -370 -32 -91 -79 -226
-105 -300 -25 -74 -50 -144 -55 -155 -5 -11 -17 -42 -26 -70 -37 -109 -178
-514 -316 -900 -27 -77 -51 -147 -53 -155 -2 -8 -11 -35 -20 -60 -9 -25 -43
-120 -76 -212 -32 -93 -86 -246 -120 -340 -33 -95 -65 -184 -69 -198 -5 -14
-33 -95 -63 -180 -196 -556 -254 -720 -293 -835 -25 -71 -49 -139 -54 -150 -4
-11 -15 -40 -23 -65 -8 -25 -30 -85 -47 -135 -18 -49 -45 -126 -60 -170 -16
-44 -44 -125 -63 -180 -164 -467 -339 -965 -429 -1220 -33 -93 -69 -197 -80
-230 -11 -33 -24 -69 -28 -80 -11 -27 -57 -156 -120 -340 -28 -82 -55 -159
-60 -170 -4 -11 -26 -72 -48 -135 -22 -63 -71 -200 -107 -305 -37 -104 -98
-278 -135 -385 -70 -198 -141 -400 -248 -705 -57 -161 -278 -789 -383 -1090
-28 -77 -58 -165 -69 -195 -10 -30 -94 -266 -185 -525 -91 -258 -168 -477
-170 -485 -2 -8 -11 -35 -20 -60 -9 -25 -41 -115 -71 -200 -96 -273 -131 -372
-189 -535 -31 -88 -76 -216 -100 -285 -41 -119 -187 -536 -407 -1160 -207
-585 -409 -1163 -555 -1580 -41 -118 -81 -231 -88 -250 -17 -43 -50 -137 -155
-440 -91 -262 -138 -395 -150 -425 -7 -18 -145 -410 -296 -845 -30 -85 -65
-184 -78 -220 -14 -36 -50 -139 -81 -230 -31 -91 -60 -174 -65 -185 -5 -11
-72 -202 -150 -425 -194 -555 -259 -740 -272 -773 -6 -15 -7 -31 -4 -35 5 -5
2886 -12 2936 -7 0 0 13 38 29 85 16 47 89 258 161 470 180 526 236 690 398
1165 77 226 200 583 272 795 73 212 138 403 145 425 8 22 64 186 125 365 61
179 124 363 140 410 16 47 74 218 130 380 56 162 112 327 125 365 13 39 78
230 145 425 186 542 208 606 250 730 21 63 66 194 99 290 33 96 120 353 194
570 74 217 152 442 172 500 20 58 38 110 39 115 2 6 6 17 9 25 3 8 29 85 58
170 42 125 169 495 192 560 3 8 24 71 47 140 23 69 71 208 105 310 35 102 122
357 194 567 71 210 134 391 141 402 6 12 8 21 6 21 -3 0 -1 12 5 28 10 24 104
297 300 872 39 113 86 250 105 305 19 55 37 107 39 115 2 8 19 60 39 115 19
55 73 215 121 355 47 140 89 262 92 270 4 8 7 17 8 20 1 3 4 12 7 20 4 8 8 24
11 35 4 17 132 386 150 435 4 8 38 112 77 230 39 118 75 224 80 235 5 11 16
43 25 70 9 28 73 214 142 415 68 201 145 424 169 495 57 168 78 230 224 655
67 195 148 436 181 535 34 99 65 189 70 200 5 11 45 128 90 260 92 272 161
476 314 920 59 171 110 324 115 340 5 17 34 102 65 190 31 88 58 165 59 170 2
6 6 17 9 25 8 20 174 508 238 700 29 85 54 157 56 160 3 3 648 5 1435 5 l1430
0 47 -33 c25 -18 57 -42 71 -52 28 -21 280 -211 320 -240 14 -11 177 -133 362
-272 185 -139 349 -262 364 -273 15 -11 87 -65 160 -120 73 -55 145 -109 160
-120 15 -11 159 -119 320 -240 161 -121 305 -229 320 -240 23 -17 113 -84 238
-178 73 -56 1664 -1248 1685 -1264 13 -10 156 -117 317 -238 161 -121 305
-229 320 -240 45 -33 177 -132 204 -153 14 -10 93 -70 175 -131 163 -122 190
-142 220 -166 l20 -15 -20 -16 c-11 -9 -85 -58 -165 -109 -80 -51 -217 -140
-305 -198 -88 -57 -288 -187 -445 -288 -157 -101 -326 -211 -377 -244 -51 -33
-169 -109 -263 -170 -93 -60 -246 -159 -340 -220 -93 -60 -236 -153 -317 -205
-81 -52 -197 -127 -257 -167 -198 -128 -438 -283 -626 -404 -41 -27 -132 -86
-202 -131 -70 -46 -211 -137 -313 -203 -103 -66 -228 -147 -278 -180 -51 -33
-149 -96 -217 -140 -69 -43 -126 -83 -128 -87 -2 -4 -7 -8 -12 -8 -5 0 -41
-22 -82 -48 -40 -27 -104 -68 -143 -93 -157 -100 -431 -278 -440 -286 -5 -5
-17 -12 -25 -16 -8 -4 -54 -33 -102 -64 -48 -32 -154 -101 -235 -153 -82 -52
-211 -135 -288 -186 -77 -50 -192 -124 -255 -165 -63 -40 -117 -76 -120 -79
-3 -3 -13 -9 -22 -15 -38 -22 -313 -200 -318 -205 -3 -4 -12 -9 -20 -13 -8 -4
-94 -58 -190 -121 -96 -63 -240 -156 -320 -207 -80 -51 -147 -96 -150 -99 -3
-4 -12 -9 -20 -13 -8 -4 -55 -34 -105 -66 -49 -33 -133 -87 -185 -121 -52 -33
-129 -83 -170 -111 -41 -27 -82 -52 -90 -56 -8 -4 -19 -11 -25 -16 -5 -4 -51
-35 -101 -67 -51 -32 -137 -88 -191 -123 -55 -36 -164 -106 -244 -157 -79 -51
-187 -121 -239 -155 -52 -34 -140 -91 -195 -126 -55 -36 -154 -100 -220 -143
-263 -170 -425 -274 -522 -336 -56 -36 -102 -67 -102 -70 -1 -3 21 -28 47 -56
26 -28 87 -95 137 -150 49 -54 92 -101 95 -104 3 -3 46 -50 95 -105 50 -55 99
-109 110 -121 25 -26 164 -180 185 -204 15 -17 152 -167 246 -270 51 -56 131
-144 149 -164 9 -11 189 -208 210 -232 6 -6 47 -51 92 -100 45 -49 90 -98 100
-110 17 -20 122 -136 239 -263 81 -89 175 -193 215 -236 19 -22 82 -92 140
-155 57 -63 125 -137 150 -165 26 -27 57 -62 70 -76 83 -93 178 -198 203 -224
15 -16 60 -66 100 -109 39 -44 76 -84 81 -90 6 -6 53 -58 105 -116 52 -58 100
-110 105 -116 60 -65 177 -194 192 -210 27 -32 174 -194 203 -224 14 -14 65
-71 115 -126 49 -54 92 -101 95 -104 3 -3 46 -50 95 -105 50 -55 99 -109 110
-121 11 -11 40 -43 64 -70 37 -41 182 -201 231 -254 8 -9 35 -38 59 -66 24
-27 67 -74 95 -104 55 -60 103 -113 236 -259 94 -104 97 -108 213 -235 45 -49
91 -100 102 -112 38 -43 170 -188 221 -243 28 -31 79 -87 114 -126 35 -38 66
-72 70 -75 3 -3 43 -48 90 -100 47 -52 94 -104 105 -116 11 -12 54 -59 95
-104 41 -46 98 -109 126 -139 80 -88 96 -106 170 -187 37 -42 81 -91 97 -108
32 -34 56 -60 197 -216 52 -57 104 -114 115 -126 20 -21 157 -172 185 -204 8
-10 56 -62 106 -116 50 -55 110 -121 135 -148 24 -28 61 -68 82 -90 l37 -41
1875 0 c1080 0 1875 4 1875 9 0 5 -8 16 -18 25 -9 9 -55 59 -102 111 -47 52
-104 115 -126 140 -23 25 -57 63 -75 85 -19 22 -41 47 -51 55 -13 13 -446 491
-528 584 -14 16 -30 34 -35 40 -33 35 -140 153 -205 225 -41 46 -80 89 -85 95
-6 6 -55 61 -109 121 -55 61 -115 128 -135 150 -20 22 -81 90 -136 150 -54 61
-106 117 -114 126 -9 9 -45 49 -81 89 -36 40 -81 90 -100 111 -19 21 -60 66
-90 100 -30 34 -83 92 -116 128 -34 36 -74 82 -90 101 -16 19 -42 48 -59 65
-16 17 -46 49 -65 71 -42 47 -218 242 -270 299 -20 22 -83 92 -139 155 -57 63
-122 135 -145 160 -23 25 -84 92 -135 150 -52 58 -99 110 -105 115 -6 6 -47
51 -91 100 -44 50 -98 110 -121 135 -63 69 -85 92 -149 166 -33 37 -73 82 -90
99 -16 17 -61 67 -100 110 -38 43 -79 88 -90 100 -32 34 -176 194 -215 238
-19 22 -46 52 -60 66 -14 14 -59 64 -100 111 -41 46 -84 94 -95 106 -11 11
-48 52 -83 91 -34 39 -75 83 -90 100 -15 16 -61 67 -102 113 -41 46 -79 88
-85 94 -5 6 -53 58 -105 116 -52 58 -99 110 -105 116 -5 6 -39 44 -75 84 -36
40 -76 85 -90 100 -55 59 -170 186 -187 206 -24 28 -163 181 -188 208 -11 12
-60 66 -109 121 -49 55 -92 102 -95 105 -4 3 -65 70 -136 150 -71 80 -149 165
-172 190 -23 25 -51 56 -62 70 -12 14 -36 41 -54 60 -107 114 -207 229 -207
236 1 8 134 94 753 486 23 15 65 41 92 58 28 17 111 70 186 118 75 48 248 158
385 245 634 403 823 523 837 532 8 6 57 37 109 70 51 32 129 82 173 110 161
103 452 288 601 382 10 7 80 51 154 98 74 48 216 138 315 201 99 63 214 137
255 163 294 188 363 231 371 231 5 0 9 3 9 8 0 4 9 12 20 17 11 6 154 96 318
200 163 105 305 195 314 200 16 9 139 88 298 190 36 23 125 80 197 126 73 46
165 104 203 129 258 164 406 258 438 278 20 13 63 40 94 60 32 20 104 66 160
102 57 35 153 96 213 135 61 39 173 111 250 159 77 49 151 96 165 106 14 9 88
56 165 105 184 116 479 304 583 371 45 30 87 54 92 54 6 0 10 3 10 8 0 4 9 12
20 17 11 6 154 96 318 200 163 105 304 195 314 200 27 16 595 378 758 483 41
27 135 86 208 133 368 232 344 215 323 229 -8 5 -85 63 -170 129 -1127 873
-1678 1300 -1840 1425 -79 61 -172 134 -206 161 -35 28 -76 60 -92 71 -34 26
-773 599 -1478 1145 -126 98 -367 285 -535 415 -168 130 -332 257 -365 283
-33 26 -100 78 -150 116 -49 38 -94 73 -100 77 -5 5 -35 28 -65 51 -30 24
-217 169 -415 322 -538 417 -725 561 -780 604 -27 22 -147 114 -265 205 -118
92 -222 172 -230 179 -8 7 -94 73 -190 147 -96 74 -250 193 -342 265 -91 71
-242 188 -335 260 -92 71 -175 135 -183 142 -14 11 -348 269 -743 575 -88 68
-200 155 -250 194 l-92 72 -2873 0 c-1770 0 -2874 -4 -2878 -9z"/>
<path d="M31521 27570 c-4 -3 -72 -194 -149 -425 -78 -231 -221 -654 -318
-940 -96 -286 -181 -540 -189 -565 -7 -25 -101 -304 -208 -620 -243 -720 -337
-1000 -337 -1009 0 -3 633 -6 1406 -6 1240 0 1408 2 1416 15 8 13 203 593 212
630 2 8 154 465 337 1015 183 550 333 1002 334 1005 0 3 67 204 149 448 81
244 145 447 141 450 -8 8 -2783 10 -2794 2z"/>
<path d="M29648 22033 c-270 -794 -390 -1150 -393 -1163 -3 -8 -27 -80 -54
-160 -74 -217 -426 -1257 -472 -1395 -22 -66 -42 -127 -45 -135 -7 -16 -258
-756 -465 -1370 -66 -195 -140 -413 -164 -485 -24 -71 -85 -249 -134 -395 -49
-146 -192 -566 -316 -935 -125 -368 -240 -708 -255 -755 -16 -47 -77 -227
-136 -400 -146 -431 -215 -633 -218 -645 -2 -5 -6 -17 -9 -25 -3 -8 -17 -49
-31 -90 -26 -79 -381 -1128 -542 -1605 -52 -154 -129 -381 -170 -505 -41 -124
-77 -232 -81 -240 -3 -8 -66 -193 -140 -410 -121 -356 -201 -595 -382 -1130
-33 -96 -58 -177 -56 -180 2 -3 637 -5 1411 -5 l1408 0 7 25 c4 14 100 300
214 635 114 336 209 619 212 630 3 11 7 27 10 35 3 8 7 20 9 25 2 6 75 222
162 480 211 624 245 723 519 1535 219 649 340 1009 565 1675 269 800 371 1104
628 1865 155 459 330 979 390 1155 59 176 149 444 200 595 51 151 185 547 297
880 113 333 231 684 263 780 85 255 529 1569 589 1745 28 83 51 154 51 158 0
4 -631 7 -1403 7 l-1402 0 -67 -197z"/>
</g>
</svg>
